<mxfile host="Electron" agent="Mozilla/5.0 (Windows NT 10.0; Win64; x64) AppleWebKit/537.36 (KHTML, like Gecko) draw.io/24.7.5 Chrome/126.0.6478.183 Electron/31.3.0 Safari/537.36" version="24.7.5">
  <diagram name="PÃ¡gina-1" id="K8xOzohgtVrtEJ1oREf9">
    <mxGraphModel dx="1160" dy="785" grid="1" gridSize="10" guides="1" tooltips="1" connect="1" arrows="1" fold="1" page="1" pageScale="1" pageWidth="827" pageHeight="1169" math="0" shadow="0">
      <root>
        <mxCell id="0" />
        <mxCell id="1" parent="0" />
        <mxCell id="ZMFOBTXvy2DimTZoJak5-13" style="edgeStyle=orthogonalEdgeStyle;rounded=0;orthogonalLoop=1;jettySize=auto;html=1;exitX=0.5;exitY=0.5;exitDx=0;exitDy=0;exitPerimeter=0;entryX=0;entryY=0.25;entryDx=0;entryDy=0;" edge="1" parent="1" source="ZMFOBTXvy2DimTZoJak5-1" target="ZMFOBTXvy2DimTZoJak5-2">
          <mxGeometry relative="1" as="geometry" />
        </mxCell>
        <mxCell id="ZMFOBTXvy2DimTZoJak5-15" style="edgeStyle=orthogonalEdgeStyle;rounded=0;orthogonalLoop=1;jettySize=auto;html=1;exitX=0.5;exitY=0.5;exitDx=0;exitDy=0;exitPerimeter=0;entryX=0;entryY=0.75;entryDx=0;entryDy=0;" edge="1" parent="1" source="ZMFOBTXvy2DimTZoJak5-1" target="ZMFOBTXvy2DimTZoJak5-4">
          <mxGeometry relative="1" as="geometry" />
        </mxCell>
        <mxCell id="ZMFOBTXvy2DimTZoJak5-16" style="edgeStyle=orthogonalEdgeStyle;rounded=0;orthogonalLoop=1;jettySize=auto;html=1;exitX=0.5;exitY=0.5;exitDx=0;exitDy=0;exitPerimeter=0;entryX=0;entryY=0.75;entryDx=0;entryDy=0;" edge="1" parent="1" source="ZMFOBTXvy2DimTZoJak5-1" target="ZMFOBTXvy2DimTZoJak5-6">
          <mxGeometry relative="1" as="geometry" />
        </mxCell>
        <mxCell id="ZMFOBTXvy2DimTZoJak5-17" style="edgeStyle=orthogonalEdgeStyle;rounded=0;orthogonalLoop=1;jettySize=auto;html=1;entryX=0;entryY=0.5;entryDx=0;entryDy=0;" edge="1" parent="1" source="ZMFOBTXvy2DimTZoJak5-1" target="ZMFOBTXvy2DimTZoJak5-8">
          <mxGeometry relative="1" as="geometry" />
        </mxCell>
        <mxCell id="ZMFOBTXvy2DimTZoJak5-18" style="edgeStyle=orthogonalEdgeStyle;rounded=0;orthogonalLoop=1;jettySize=auto;html=1;exitX=0.5;exitY=0.5;exitDx=0;exitDy=0;exitPerimeter=0;entryX=0;entryY=0.5;entryDx=0;entryDy=0;" edge="1" parent="1" source="ZMFOBTXvy2DimTZoJak5-1" target="ZMFOBTXvy2DimTZoJak5-10">
          <mxGeometry relative="1" as="geometry" />
        </mxCell>
        <mxCell id="ZMFOBTXvy2DimTZoJak5-1" value="Actor" style="shape=umlActor;verticalLabelPosition=bottom;verticalAlign=top;html=1;outlineConnect=0;" vertex="1" parent="1">
          <mxGeometry x="140" y="295" width="30" height="60" as="geometry" />
        </mxCell>
        <mxCell id="ZMFOBTXvy2DimTZoJak5-2" value="" style="rounded=0;whiteSpace=wrap;html=1;" vertex="1" parent="1">
          <mxGeometry x="390" y="220" width="120" height="60" as="geometry" />
        </mxCell>
        <mxCell id="ZMFOBTXvy2DimTZoJak5-3" value="ejecutar programa" style="text;html=1;align=center;verticalAlign=middle;whiteSpace=wrap;rounded=0;" vertex="1" parent="1">
          <mxGeometry x="420" y="235" width="60" height="30" as="geometry" />
        </mxCell>
        <mxCell id="ZMFOBTXvy2DimTZoJak5-4" value="" style="rounded=0;whiteSpace=wrap;html=1;" vertex="1" parent="1">
          <mxGeometry x="390" y="310" width="120" height="60" as="geometry" />
        </mxCell>
        <mxCell id="ZMFOBTXvy2DimTZoJak5-5" value="Definir funcion" style="text;html=1;align=center;verticalAlign=middle;whiteSpace=wrap;rounded=0;" vertex="1" parent="1">
          <mxGeometry x="420" y="325" width="60" height="30" as="geometry" />
        </mxCell>
        <mxCell id="ZMFOBTXvy2DimTZoJak5-6" value="" style="rounded=0;whiteSpace=wrap;html=1;" vertex="1" parent="1">
          <mxGeometry x="390" y="400" width="120" height="60" as="geometry" />
        </mxCell>
        <mxCell id="ZMFOBTXvy2DimTZoJak5-7" value="asignar variables" style="text;html=1;align=center;verticalAlign=middle;whiteSpace=wrap;rounded=0;" vertex="1" parent="1">
          <mxGeometry x="420" y="415" width="60" height="30" as="geometry" />
        </mxCell>
        <mxCell id="ZMFOBTXvy2DimTZoJak5-8" value="" style="rounded=0;whiteSpace=wrap;html=1;" vertex="1" parent="1">
          <mxGeometry x="390" y="490" width="120" height="60" as="geometry" />
        </mxCell>
        <mxCell id="ZMFOBTXvy2DimTZoJak5-9" value="evaluar expresiones" style="text;html=1;align=center;verticalAlign=middle;whiteSpace=wrap;rounded=0;" vertex="1" parent="1">
          <mxGeometry x="420" y="505" width="60" height="30" as="geometry" />
        </mxCell>
        <mxCell id="ZMFOBTXvy2DimTZoJak5-10" value="" style="rounded=0;whiteSpace=wrap;html=1;" vertex="1" parent="1">
          <mxGeometry x="390" y="585" width="120" height="60" as="geometry" />
        </mxCell>
        <mxCell id="ZMFOBTXvy2DimTZoJak5-11" value="ejecutar condicionales" style="text;html=1;align=center;verticalAlign=middle;whiteSpace=wrap;rounded=0;" vertex="1" parent="1">
          <mxGeometry x="420" y="600" width="60" height="30" as="geometry" />
        </mxCell>
      </root>
    </mxGraphModel>
  </diagram>
</mxfile>
